<?xml version="1.0" standalone="no"?>
<!DOCTYPE svg PUBLIC "-//W3C//DTD SVG 20010904//EN"
 "http://www.w3.org/TR/2001/REC-SVG-20010904/DTD/svg10.dtd">
<svg version="1.0" xmlns="http://www.w3.org/2000/svg"
 width="600.000000pt" height="400.000000pt" viewBox="0 0 600.000000 400.000000"
 preserveAspectRatio="xMidYMid meet">

<g transform="translate(0.000000,400.000000) scale(0.100000,-0.100000)"
fill="#000000" stroke="none">
<path d="M3480 3741 c-21 -7 -17 -9 30 -16 127 -18 231 -81 297 -181 20 -30
39 -53 42 -52 3 2 23 12 44 23 20 10 37 25 37 33 0 26 -123 138 -185 167 -49
23 -76 29 -150 31 -49 2 -101 0 -115 -5z"/>
<path d="M2890 3601 c0 -27 19 -36 37 -18 18 18 9 37 -18 37 -12 0 -19 -7 -19
-19z"/>
<path d="M4085 3550 c3 -5 13 -10 21 -10 26 0 88 -37 120 -72 45 -47 71 -104
79 -172 l8 -58 30 6 c16 3 38 6 48 6 15 0 19 8 19 38 0 107 -88 226 -190 256
-60 18 -145 22 -135 6z"/>
<path d="M2238 3443 c-32 -2 -58 -9 -58 -15 0 -12 82 -127 91 -128 5 0 40 72
66 138 3 8 -3 11 -18 10 -13 -1 -50 -3 -81 -5z"/>
<path d="M3570 3370 c-8 -5 -23 -11 -33 -14 -13 -4 -18 -14 -15 -35 2 -22 -5
-35 -29 -55 -27 -22 -35 -25 -58 -16 -15 6 -29 9 -30 8 -17 -27 -45 -81 -45
-89 0 -5 7 -9 16 -9 8 0 12 -4 9 -10 -4 -6 1 -7 11 -3 15 5 16 1 9 -43 -7 -48
-17 -64 -42 -64 -16 0 -16 -12 -1 -62 11 -36 14 -39 41 -35 24 3 36 -2 58 -27
25 -28 26 -33 14 -62 -12 -29 -11 -31 17 -47 39 -23 65 -21 78 3 9 17 19 20
55 18 39 -3 46 -7 54 -30 11 -32 11 -32 63 -16 38 11 40 14 35 44 -5 26 -1 35
25 54 22 16 38 20 62 16 30 -6 34 -3 55 34 l23 41 -24 18 c-20 16 -23 26 -20
64 3 36 9 47 29 56 16 8 23 17 19 29 -3 9 -8 30 -12 45 -6 24 -10 27 -33 22
-21 -4 -33 1 -58 27 -24 25 -30 37 -23 48 18 29 10 47 -30 65 -39 17 -40 17
-57 -2 -26 -29 -100 -21 -115 13 -12 25 -23 29 -48 14z m143 -137 c18 -9 35
-16 39 -15 16 4 67 -81 73 -122 12 -79 -50 -175 -125 -191 -46 -10 -113 3
-152 28 -48 32 -81 101 -74 154 15 119 143 197 239 146z"/>
<path d="M2920 3332 l-45 -16 65 -7 c36 -4 77 -12 93 -18 26 -10 27 -10 27 24
l0 35 -47 -1 c-27 0 -68 -8 -93 -17z"/>
<path d="M4490 3220 c58 -36 91 -72 116 -125 67 -142 -10 -308 -166 -356 -25
-7 -25 -7 5 -9 86 -6 149 16 204 71 150 149 62 410 -146 435 l-48 6 35 -22z"/>
<path d="M2335 2830 c3 -5 8 -10 11 -10 2 0 4 5 4 10 0 6 -5 10 -11 10 -5 0
-7 -4 -4 -10z"/>
<path d="M3500 2711 c0 -11 5 -23 10 -26 6 -3 10 -51 10 -109 0 -125 -13 -150
-84 -160 -53 -8 -96 -51 -96 -95 0 -15 -6 -39 -12 -54 l-13 -27 -227 0 c-225
0 -227 0 -255 -24 l-28 -24 0 -251 c0 -325 -26 -295 254 -299 l209 -3 32 45
31 46 -149 0 c-136 0 -152 2 -176 21 -34 27 -37 86 -5 115 19 17 38 19 199 19
l177 0 -4 36 c-3 21 -1 39 6 43 6 4 11 14 11 22 0 12 -31 14 -185 14 -172 0
-186 1 -205 20 -12 12 -20 33 -20 55 0 22 8 43 20 55 19 19 33 20 299 20 270
0 281 1 317 22 l37 22 -5 -22 c-6 -22 -5 -22 118 -22 114 0 125 -2 144 -22 26
-28 26 -82 0 -108 -18 -18 -33 -20 -171 -20 -140 0 -151 -1 -144 -17 4 -10 9
-36 12 -59 l5 -40 140 0 c135 1 140 0 159 -23 28 -34 25 -85 -7 -110 -25 -20
-40 -21 -224 -21 l-198 0 -7 -42 c-5 -28 -4 -43 4 -46 8 -3 8 -10 0 -25 l-10
-22 19 22 c19 22 24 22 320 25 299 3 302 3 324 26 23 22 23 26 23 273 l0 251
-28 24 c-28 24 -29 24 -270 24 l-242 0 -12 27 c-29 62 0 117 69 128 26 5 53
18 70 35 27 28 28 31 28 139 0 62 4 112 10 116 6 3 10 15 10 26 0 14 -7 19
-30 19 -23 0 -30 -5 -30 -19 0 -11 5 -23 10 -26 6 -3 10 -51 10 -109 0 -124
-13 -150 -82 -159 -52 -7 -98 -52 -98 -95 0 -15 -6 -40 -12 -55 -13 -26 -16
-27 -93 -27 -77 0 -80 1 -92 27 -28 59 -7 109 51 124 70 18 73 19 92 40 15 17
20 43 25 138 3 64 9 126 14 139 7 20 4 22 -24 22 -24 0 -31 -4 -31 -19z"/>
<path d="M2281 2540 c-30 -22 -63 -40 -73 -40 -10 0 -34 -16 -53 -35 -21 -20
-52 -39 -77 -45 -73 -19 -98 -32 -121 -64 -49 -68 -16 -229 59 -296 55 -48 76
-48 142 -2 58 41 75 62 49 62 -20 0 -57 47 -57 72 0 20 42 68 60 68 6 0 25
-13 41 -29 37 -38 39 -97 5 -180 -19 -48 -22 -63 -12 -82 13 -27 58 -42 103
-34 39 7 45 16 48 69 1 23 5 51 9 63 6 19 1 26 -29 44 -20 12 -45 39 -56 61
-18 35 -19 45 -8 99 9 47 17 63 35 71 34 16 47 64 34 123 -10 45 -36 115 -42
115 -2 -1 -27 -19 -57 -40z"/>
<path d="M4290 2550 c0 -5 7 -10 15 -10 8 0 15 5 15 10 0 6 -7 10 -15 10 -8 0
-15 -4 -15 -10z"/>
<path d="M4350 2550 c0 -5 5 -10 10 -10 6 0 10 5 10 10 0 6 -4 10 -10 10 -5 0
-10 -4 -10 -10z"/>
<path d="M1630 2349 c1 -32 16 -40 35 -19 10 11 13 20 7 20 -6 0 -17 3 -26 6
-10 4 -16 1 -16 -7z"/>
<path d="M2187 2233 c-14 -13 -6 -42 12 -48 10 -3 21 -15 24 -26 6 -22 28 -22
35 -1 2 7 -2 10 -12 6 -10 -4 -16 -1 -16 9 0 9 -9 19 -20 22 -11 3 -20 11 -20
16 0 5 9 9 20 9 11 0 20 5 20 10 0 11 -33 14 -43 3z"/>
<path d="M3609 2119 c-11 -9 -19 -18 -19 -21 0 -3 46 -6 102 -7 56 0 104 -3
106 -6 2 -2 2 -12 -2 -21 -6 -15 -21 -16 -131 -12 -69 3 -125 2 -125 -2 0 -4
7 -14 16 -21 13 -10 53 -13 173 -11 144 3 157 5 174 24 18 21 15 52 -7 75 -7
7 -58 13 -140 15 -107 2 -132 0 -147 -13z"/>
<path d="M3010 2110 c-25 -25 -25 -41 -2 -69 16 -21 23 -22 217 -19 168 3 200
5 203 18 2 13 -20 15 -158 12 -156 -3 -160 -2 -160 18 0 19 6 20 173 22 94 0
179 1 187 0 8 0 26 8 40 18 25 19 24 20 -227 20 -240 0 -254 -1 -273 -20z"/>
<path d="M3015 1845 c-30 -29 -31 -49 -5 -75 18 -18 33 -20 178 -20 l158 0 16
28 c8 15 13 33 11 40 -3 6 0 12 6 12 6 0 11 9 11 20 0 19 -7 20 -175 20 -173
0 -176 0 -200 -25z m173 -26 c10 0 12 -3 5 -5 -7 -3 -9 -13 -6 -22 6 -15 5
-15 -10 -3 -13 11 -17 11 -17 1 0 -20 -13 -3 -17 21 -2 12 1 18 7 14 5 -3 10
0 11 7 0 10 2 10 6 1 2 -7 12 -13 21 -14z m106 8 c16 -16 6 -42 -17 -44 -12 0
-16 4 -13 13 3 8 0 14 -6 14 -7 0 -6 5 2 15 15 18 18 18 34 2z"/>
<path d="M3556 1837 c-20 -19 -34 -37 -31 -40 3 -4 2 -5 -2 -2 -9 7 -33 -15
-33 -31 0 -11 36 -14 193 -14 105 0 197 4 204 8 6 4 17 20 22 35 9 24 8 31
-14 53 -23 23 -29 24 -163 24 l-139 0 -37 -33z m92 -18 c10 0 12 -3 5 -5 -7
-3 -9 -13 -6 -22 6 -15 5 -15 -10 -3 -13 11 -17 11 -17 1 0 -8 -3 -10 -7 -6
-5 4 -8 13 -8 19 0 16 19 37 23 26 2 -5 11 -9 20 -10z m102 10 c0 -5 5 -7 12
-3 8 5 9 2 5 -10 -4 -10 -7 -21 -7 -25 0 -4 -9 -7 -20 -7 -13 0 -19 5 -16 13
3 7 1 13 -5 13 -5 0 -4 7 3 15 15 17 28 19 28 4z"/>
<path d="M2010 1848 c-12 -5 -51 -28 -85 -52 -34 -24 -87 -52 -116 -61 -42
-14 -70 -34 -124 -89 -150 -151 -279 -408 -356 -710 -20 -76 -20 -81 -3 -93
10 -7 23 -13 30 -13 7 0 19 -3 28 -6 13 -5 16 1 16 33 l0 40 90 13 c50 7 93
11 95 8 6 -5 -27 -389 -48 -578 l-12 -105 -68 -3 c-37 -2 -67 -7 -67 -12 0 -6
598 -10 1620 -10 1073 0 1620 3 1620 10 0 6 -107 10 -300 10 l-300 0 14 23 c9
14 34 168 66 412 l51 390 -22 18 c-18 15 -44 17 -189 17 -140 0 -169 -2 -174
-15 -5 -13 14 -15 129 -15 123 0 137 -2 156 -21 11 -11 18 -28 15 -37 -2 -9
-23 -156 -47 -327 -23 -174 -48 -320 -56 -332 -7 -13 -22 -23 -32 -23 -41 0
-43 17 -26 235 11 155 12 211 4 221 -8 9 -33 14 -74 14 -68 0 -81 -11 -63 -55
6 -17 68 -369 68 -389 0 -3 -11 -6 -24 -6 -13 0 -27 -6 -29 -12 -4 -10 -6 -10
-6 0 -1 17 -121 17 -121 0 0 -9 -3 -9 -12 0 -16 16 -125 16 -131 0 -4 -10 -6
-10 -6 0 -1 8 -21 12 -65 12 -42 0 -66 -4 -69 -12 -4 -10 -6 -10 -6 0 -1 17
-369 16 -389 -1 -10 -8 -16 -7 -23 4 -5 8 -9 10 -9 5 0 -6 -4 -6 -10 0 -7 7
-4 55 10 150 20 132 20 264 0 264 -4 0 -20 -93 -36 -207 -26 -180 -32 -208
-47 -207 -9 1 -17 -2 -17 -7 0 -5 -7 -9 -15 -9 -8 0 -15 3 -15 8 0 4 -17 6
-39 4 -21 -2 -42 1 -45 7 -12 18 -45 355 -53 519 l-6 154 -82 38 c-97 44 -193
107 -252 163 -65 62 -51 65 20 4 102 -87 278 -184 311 -171 8 3 41 -8 75 -25
33 -17 67 -31 75 -31 19 0 103 103 136 167 14 26 28 51 33 54 18 14 48 127 48
184 0 106 3 104 -139 170 -280 131 -401 184 -443 195 -24 6 -76 28 -115 47
-71 34 -72 35 -104 18 -42 -22 -119 -16 -176 12 -29 14 -47 17 -64 11z m-334
-376 c-27 -82 -57 -251 -63 -354 -3 -54 -11 -102 -16 -105 -17 -10 0 173 27
309 30 145 58 240 64 215 2 -9 -3 -39 -12 -65z m794 -201 c0 -16 98 -51 143
-51 24 0 58 5 76 11 18 6 34 9 37 6 12 -11 -42 -30 -100 -34 -53 -4 -69 -1
-116 24 -50 26 -76 53 -51 53 6 0 11 -4 11 -9z m-270 -832 c0 -5 -30 -24 -67
-42 -61 -28 -78 -31 -163 -31 -82 -1 -103 3 -152 26 -32 15 -58 32 -58 38 0 7
3 10 8 8 98 -50 107 -53 203 -53 88 0 100 2 155 32 67 35 74 37 74 22z"/>
<path d="M2986 978 c-3 -13 -8 -45 -11 -71 -6 -47 -5 -48 17 -45 20 3 24 11
31 62 6 45 5 61 -5 67 -21 14 -27 11 -32 -13z"/>
<path d="M3243 944 c7 -8 247 -8 254 0 4 3 -54 6 -127 6 -73 0 -131 -3 -127
-6z"/>
<path d="M3526 942 c5 -4 47 -5 94 -2 l85 7 -94 1 c-52 1 -91 -2 -85 -6z"/>
<path d="M3240 890 c0 -6 28 -10 65 -10 37 0 65 4 65 10 0 6 -28 10 -65 10
-37 0 -65 -4 -65 -10z"/>
<path d="M3410 890 c0 -6 27 -10 60 -10 33 0 60 4 60 10 0 6 -27 10 -60 10
-33 0 -60 -4 -60 -10z"/>
<path d="M3575 890 c-4 -6 18 -10 59 -10 37 0 66 4 66 10 0 6 -26 10 -59 10
-33 0 -63 -4 -66 -10z"/>
<path d="M3114 869 c-3 -6 -1 -16 6 -22 10 -9 11 -9 6 1 -4 7 -1 12 8 12 9 0
16 5 16 10 0 13 -27 13 -36 -1z"/>
<path d="M2950 840 c0 -5 5 -10 11 -10 5 0 7 5 4 10 -3 6 -8 10 -11 10 -2 0
-4 -4 -4 -10z"/>
<path d="M3325 840 c-4 -6 14 -10 44 -10 28 0 51 4 51 8 0 11 -88 13 -95 2z"/>
<path d="M3444 838 c-3 -4 54 -8 125 -8 84 0 131 4 131 10 0 13 -248 11 -256
-2z"/>
<path d="M3303 815 c0 -8 4 -12 9 -9 5 3 6 10 3 15 -9 13 -12 11 -12 -6z"/>
<path d="M3350 780 c20 -13 150 -13 150 0 0 6 -34 10 -82 10 -57 0 -78 -3 -68
-10z"/>
<path d="M3525 780 c3 -5 44 -10 91 -10 49 0 84 4 84 10 0 6 -37 10 -91 10
-57 0 -88 -4 -84 -10z"/>
<path d="M3715 730 c-3 -6 1 -7 9 -4 18 7 21 14 7 14 -6 0 -13 -4 -16 -10z"/>
</g>
</svg>
